<?xml version="1.0" ?><svg viewBox="0 0 512 512" xmlns="http://www.w3.org/2000/svg"><defs><style>.cls-1{fill:none;stroke:#000;stroke-linecap:round;stroke-linejoin:round;stroke-width:30px;}</style></defs><title/><g data-name="1" id="_1"><rect class="cls-1" height="192" rx="38.12" ry="38.12" width="372" x="72.86" y="240.73"/><polyline class="cls-1" points="276.48 135.2 346.42 240.73 171.31 240.73 241.24 135.2"/><circle class="cls-1" cx="258.86" cy="108.62" r="31.89"/><path d="M160.11,359.55c0-16.48-43.18-13.62-43.18-45.5,0-20.43,17.84-28.2,34.87-28.2,7.22,0,27.11,1.37,27.11,12,0,3.68-2.46,11.17-8.45,11.17-4.9,0-7.49-5.17-18.66-5.17-9.67,0-13.62,4-13.62,8.17,0,13.62,43.18,11,43.18,45.36,0,19.61-14.31,30.24-34.06,30.24-17.84,0-32.82-8.72-32.82-17.71,0-4.63,4.08-11.44,9.26-11.44,6.4,0,10.49,10.08,23.15,10.08C153.16,368.54,160.11,366.09,160.11,359.55Z"/><path d="M185,377.53a6.8,6.8,0,0,1,.28-1.5l25.33-83.09c1.5-4.77,7.63-7.09,13.9-7.09s12.39,2.32,13.89,7.09L263.9,376a6.73,6.73,0,0,1,.27,1.5c0,5-7.76,8.72-13.62,8.72-3.4,0-6.13-1.09-6.94-4l-4.64-17H210.23l-4.63,17c-.82,2.87-3.54,4-6.95,4C192.8,386.25,185,382.57,185,377.53Zm49.45-28.61-9.94-36.5-9.95,36.5Z"/><path d="M281.33,386.25c-4.63,0-9.26-2.18-9.26-6.54V293.07c0-4.49,5.31-6.4,10.63-6.4s10.62,1.91,10.62,6.4v74.65h31.06c4.09,0,6.13,4.63,6.13,9.26s-2,9.27-6.13,9.27Z"/><path d="M360.34,328.22h20.43c4.09,0,6.4,3.95,6.4,8.31,0,3.67-1.91,8-6.4,8H360.34v23.16h36.5c4.09,0,6.41,4.36,6.41,9.4,0,4.36-1.91,9.13-6.41,9.13H348.35c-4.63,0-9.26-2.18-9.26-6.54v-86.5c0-4.36,4.63-6.54,9.26-6.54h48.49c4.5,0,6.41,4.77,6.41,9.13,0,5-2.32,9.4-6.41,9.4h-36.5Z"/></g></svg>